<?xml version="1.0" encoding="UTF-8" standalone="no"?>
<svg xmlns="http://www.w3.org/2000/svg" height="88.652pt" width="240pt" version="1.1" xmlns:xlink="http://www.w3.org/1999/xlink" viewBox="0 0 239.99997 88.652238">
<defs>
<symbol id="a" overflow="visible"></symbol>
</defs>
<g transform="translate(222.21 119.7)">
<g style="fill:#000000">
<use xlink:href="#a" height="100%" width="100%" y="647.30322" x="223.52821"/>
</g>
<g style="fill:#000000">
<use xlink:href="#a" height="100%" width="100%" y="647.30322" x="247.32956"/>
</g>
<g style="fill:#000000">
<use xlink:href="#a" height="100%" width="100%" y="647.30322" x="271.13669"/>
</g>
<g style="fill:#000000">
<use xlink:href="#a" height="100%" width="100%" y="647.30322" x="295.32043"/>
</g>
<g style="fill:#000000">
<use xlink:href="#a" height="100%" width="100%" y="647.30322" x="318.73358"/>
</g>
<path style="fill:#0066b3" d="m-220.8-31.375h3.1094l2.0896-5.7288h8.4683l2.1196 5.7288h3.1793l-8.4683-21.876h-2.1896zm6.0888-8.1484 2.0596-5.6589c0.65986-1.8496 1.0198-2.8794 1.2498-3.6693h0.0701c0.25994 0.78984 0.59986 1.7896 1.2197 3.6393l2.0596 5.6889zm36.303 8.1484v-21.816h-2.9494v13.177c0 1.5197 0.0399 2.6095 0.0701 3.7692h-0.0701c-0.71986-1.0598-1.6497-2.4195-2.9394-4.0692l-9.758-12.877h-2.8494v21.816h2.9494v-13.667c0-1.5897-0.0399-2.6195-0.10008-3.6393h0.0599c0.75986 1.0498 1.6597 2.3395 2.8794 3.9292l10.158 13.377zm4.899 0h3.1094l2.0796-5.7288h8.4783l2.1196 5.7288h3.1694l-8.4683-21.876h-2.1796zm6.0888-8.1484 2.0496-5.6589c0.65986-1.8496 1.0298-2.8794 1.2597-3.6693h0.0599c0.26995 0.78984 0.59989 1.7896 1.2298 3.6393l2.0496 5.6889zm17.796 8.1484h10.918v-2.5195h-7.9684v-19.296h-2.9494zm18.696 0h2.9094v-8.6383l7.2185-13.177h-3.2094l-5.3989 10.358h-0.0599l-5.4989-10.358h-3.2393l7.2785 13.107zm19.096 0h2.9394v-19.296h6.0288l0.88983-2.5195h-16.147v2.5195h6.2888zm14.387 0h2.9494v-21.816h-2.9494zm25.285-3.6093c-1.5197 0.82983-3.1794 1.4197-5.229 1.4197-4.799 0-7.8084-3.5093-7.8084-8.6083 0-4.759 3.0394-8.6983 8.0084-8.6983 2.1796 0 3.8692 0.55989 5.4289 1.3897v-2.7494c-1.1598-0.61988-3.1494-1.1498-5.4989-1.1498-6.6187 0-11.048 5.029-11.048 11.348 0 6.3887 3.8992 10.988 10.588 10.988 2.0496 0 4.1992-0.42991 6.3887-1.5897zm5.3589 2.2196c1.4297 0.95981 3.5093 1.7197 6.0288 1.7197 4.2292 0 7.2386-2.2496 7.2386-5.9588 0-6.8186-9.5581-6.3187-9.5581-10.958 0-2.1496 1.8196-2.9094 3.6393-2.9094 1.6497 0 3.3393 0.42991 4.829 1.2298v-2.6895c-1.0598-0.51989-2.8794-1.0498-4.929-1.0498-4.1992 0-6.6187 2.5795-6.6187 5.7189 0 6.5487 9.5281 5.9588 9.5281 10.888 0 2.3495-1.9796 3.2094-4.1692 3.2094-1.9796 0-3.6393-0.72985-4.7591-1.4897z"/>
<path style="fill:#0066b3" d="m-162.38-72.947c-3.4293-0.36992-3.3693-2.2795-3.5893-5.9288-0.58988-10.568-0.65986-24.115-0.80984-31.884-0.0699-5.119 0.5099-6.4387 5.119-6.9686l1.5597-0.13998c0.36992-0.28995 0.36992-1.5397-0.0701-1.8296-2.2895 0.14996-4.6891 0.20996-6.5287 0.20996-1.4697 0-2.9994 0-5.4989-0.20996-0.14999 3.3693-2.1895 7.4085-5.5589 14.057l-6.8986 13.997c-1.8196 3.7392-3.6593 7.5585-5.6389 10.988h-0.14c-1.7696-3.2194-3.3793-6.5887-5.059-10.018l-8.3583-16.937c-2.2596-4.6791-4.0992-9.2382-3.8092-12.088-2.4195 0.20996-4.3891 0.20996-6.0888 0.20996-1.8196 0-3.5793-0.06-5.7788-0.20996-0.58988 0.28994-0.65988 1.3897-0.28994 1.8296l1.1598 0.13998c4.4691 0.73985 5.079 1.6897 4.909 6.3087-0.14001 4.0192-0.43993 10.248-0.79984 16.337-0.42992 7.2585-0.79984 11.278-1.2398 16.127-0.4399 5.119-1.4697 5.6389-4.5491 6.0088l-1.6097 0.20996c-0.44991 0.36993-0.28994 1.4797 0.15997 1.8296 2.4895-0.13998 5.119-0.19997 7.4585-0.19997 2.7794 0 5.6489 0.05999 8.1384 0.19997 0.5099-0.19997 0.58988-1.3897 0.0798-1.8296l-2.7894-0.20996c-2.8694-0.21996-3.2894-1.3997-3.2894-6.8186 0-6.2287 0.28997-12.757 0.5099-17.217 0.21986-4.2591 0.43993-8.5183 0.71986-13.047h0.14999c1.6097 3.3693 3.1494 7.1786 4.699 10.548l6.5787 14.147c1.6896 3.5893 5.199 10.778 6.4587 14.647 0.14 0.22994 0.51991 0.30994 0.65989 0.30994 0.29992 0 0.57987-0.07998 0.71985-0.30994 1.3297-3.3693 4.6291-10.238 7.9184-16.707l6.5187-12.817c1.4697-2.8494 4.2492-8.7182 4.759-9.5181h0.14999l0.21986 30.554c0 4.6891 0 5.8588-3.5793 6.2288l-2.1196 0.20996c-0.43993 0.43991-0.36995 1.4797 0.14998 1.8296 2.9894-0.13998 6.2887-0.19997 8.8482-0.19997 2.6395 0 5.6489 0.05999 8.6583 0.19997 0.49991-0.27994 0.5799-1.3897 0.14998-1.8296z"/>
<path style="fill:#0066b3" d="m-140.94-103.94c-10.618 0-18.086 7.4785-18.086 17.217 0 9.2382 6.7386 16.637 18.086 16.637 10.328 0 17.806-7.1886 17.806-17.067 0-8.9582-6.0088-16.787-17.806-16.787m1.6297 31.634c-8.4583 0.72985-12.587-7.0886-13.237-14.617-0.87982-10.288 4.5691-14.357 9.828-14.817 8.0484-0.67986 12.448 6.8886 13.117 14.687 0.84983 10.008-4.1692 14.267-9.7081 14.747"/>
<path style="fill:#0066b3" d="m-0.63744-112.48c0-3.7992-2.6295-7.0286-5.6489-7.0286-2.8394 0-3.5093 1.8996-3.5093 3.0194 0 1.3697 0.96982 1.9696 1.9696 2.0496 1.3997 0.08 3.6693 1.3097 3.6693 4.0992 0 2.9994-2.8494 5.049-5.5689 6.2887-0.35994 0.5099-0.07013 1.2598 0.51988 1.5397 4.5991-1.3797 8.5683-4.909 8.5683-9.968"/>
<path style="fill:#0066b3" d="m11.83-88.714-4.5291-2.3395c-2.9294-1.5397-4.889-3.1594-4.889-5.7688 0-2.4995 1.5997-4.999 5.9188-4.999 4.3291 0 6.2288 3.7292 6.8286 6.2987 0.34993 0.5099 1.6697 0.43991 1.9096-0.13998 0.04991-3.1494-0.45992-5.9388-1.0498-7.1886-2.4795-0.41991-4.2392-1.0898-6.8186-1.0898-7.3685 0-11.508 3.7293-11.508 9.0882 0 4.0992 3.0194 6.9486 6.5387 8.7782l3.2894 1.6897c4.1892 2.1196 5.139 4.5491 5.139 6.8986 0 3.3593-2.4195 5.2789-6.1488 5.2789-4.919 0-8.1284-5.199-8.7283-7.8484-0.51988-0.66987-1.6097-0.59988-1.8996 0.14996 0 3.8792 0.86984 6.5187 1.5397 7.5385 1.0198 0.72985 3.9592 2.2695 8.4183 2.2695 7.2485 0 11.948-3.5893 11.948-9.2981 0-4.909-3.3093-7.9984-5.9588-9.3181"/>
<path style="fill:#0066b3" d="m-55.067-101.52c-3.4393-1.1798-7.0386-1.6097-11.138-1.6097-5.9288 0-10.038 0.13998-14.147 0.42991-0.64988 0.21997-0.72986 1.6097-0.07013 1.8296l2.1896 0.29994c1.6997 0.20995 1.7697 1.4597 1.7697 6.2287v15.537c0 5.049-0.29995 5.3389-3.4493 5.8588l-1.3997 0.20996c-0.49992 0.36993-0.42992 1.6297 0.14999 1.8296 2.8694-0.13998 5.149-0.19997 7.4885-0.19997 1.0998 0 2.4895 0.05999 3.9392 0.12997 1.5497 0.14996 3.2494 0.22994 4.859 0.22994 3.6493 0 7.7485-0.57988 11.058-2.2895 5.8688-2.9894 8.8582-8.3383 8.8582-14.117 0-6.7486-3.4393-12.098-10.108-14.367m-9.5081 28.634c-5.5989 0-6.3087-2.3395-6.3087-7.0086v-17.456c0-1.6197 0-2.5595 0.41991-2.8594 0.58988-0.4999 1.9896-0.78984 4.4091-0.78984 8.2683 0 14.567 4.6891 14.567 13.687 0 8.9382-4.3091 14.427-13.087 14.427"/>
<path style="fill:#0066b3" d="m-13.485-103.13c-2.0796 0.13998-3.6093 0.20995-5.239 0.20995-1.6697 0-3.3493-0.07-5.5389-0.20995-0.73985 0.27994-0.80985 1.4597-0.15997 1.8196l1.5397 0.22994c1.7796 0.21996 1.6097 0.86982 0.51991 2.9294l-2.9294 5.3589c-1.2398 2.3295-2.3396 4.0792-3.5193 6.0688-1.0998-1.9096-2.1996-3.8892-3.2894-6.0688l-2.7195-5.219c-1.1898-2.2795-0.93982-2.6995 0.65986-3.0694l1.0298-0.22994c0.71986-0.35993 0.51988-1.5397-0.07986-1.8196-2.3396 0.13998-4.0192 0.20995-6.2288 0.20995-2.6295 0-4.3291-0.07-6.7386-0.20995-0.57988 0.20995-0.71986 1.3797-0.21986 1.8196l1.9096 0.35992c1.8896 0.37993 2.6395 1.0398 4.1691 3.9692l5.3489 9.888c1.8396 3.3693 2.0496 3.9492 2.0496 6.2387v2.7594c0 4.3391-0.28994 4.779-3.4393 5.139l-1.8196 0.21996c-0.52989 0.36993-0.45991 1.6297 0.14 1.8296 3.2993-0.13998 5.5689-0.19997 7.9184-0.19997 2.2595 0 4.679 0.06 7.8884 0.19997 0.59987-0.19997 0.67985-1.4597 0.15997-1.8296l-1.8296-0.21996c-3.1493-0.35993-3.4593-0.79984-3.4593-5.139v-3.9492c0-2.1196 0.15997-2.8494 2.7994-7.0186l4.5391-7.3385c2.2695-3.6493 2.6395-4.0992 4.919-4.5491l1.7497-0.35992c0.59987-0.35993 0.4399-1.6097-0.13002-1.8196"/>
<path style="fill:#0066b3" d="m-101.59-103.94c-10.618 0-18.086 7.4785-18.086 17.217 0 9.2382 6.7286 16.637 18.086 16.637 10.318 0 17.806-7.1886 17.806-17.067 0-8.9582-6.0088-16.787-17.806-16.787m1.6197 31.634c-8.4483 0.72985-12.587-7.0886-13.227-14.617-0.87982-10.288 4.5691-14.357 9.828-14.817 8.0384-0.67986 12.448 6.8886 13.107 14.687 0.85983 10.008-4.1592 14.267-9.7081 14.747"/>
</g>
</svg>
